<?xml version="1.0" encoding="utf-8"?>
<!-- Generator: Adobe Illustrator 23.0.3, SVG Export Plug-In . SVG Version: 6.00 Build 0)  -->
<svg version="1.1" id="Layer_1" xmlns="http://www.w3.org/2000/svg" xmlns:xlink="http://www.w3.org/1999/xlink" x="0px" y="0px"
	 viewBox="0 0 32 32" style="enable-background:new 0 0 32 32;" xml:space="preserve">
<path d="M9.6,5.3c-0.2,0-0.4,0.1-0.4,0.3C9.1,5.8,9.1,6,9.2,6.1l1.4,1.8v16.2l-1.8,1.8c-0.1,0.1-0.1,0.3,0,0.5
	c0.1,0.2,0.2,0.3,0.4,0.3h14.1c0.1,0,0.3-0.1,0.4-0.2l2.4-2.4c0.1-0.1,0.1-0.3,0.1-0.5c-0.1-0.2-0.2-0.3-0.4-0.3H15.4V5.8
	c0-0.3-0.2-0.5-0.5-0.5C14.9,5.3,9.6,5.3,9.6,5.3z M16.4,7.3v1c4.8,0,8.7,3.9,8.7,8.7c0,2-0.7,3.9-1.8,5.3h1.2
	c1-1.6,1.6-3.4,1.6-5.3C26.1,11.6,21.7,7.3,16.4,7.3z M16.4,9.2v13.1H22c1.3-1.4,2.1-3.3,2.1-5.3C24.1,12.7,20.6,9.2,16.4,9.2
	L16.4,9.2z M9.6,10.1c-1.7,1.6-2.8,3.9-2.9,6.4c0,0.5,0,0.9,0,1.4c0.2,2.4,1.3,4.5,2.9,6.1v-1.4C8.3,20.9,7.6,19,7.6,17
	c0-2,0.7-3.9,1.9-5.5C9.6,11.5,9.6,10.1,9.6,10.1z M9.6,13.2c-0.6,1.1-1,2.4-1,3.7c0,1.4,0.4,2.6,1,3.7C9.6,20.7,9.6,13.2,9.6,13.2z
	"/>
</svg>
